<mxfile host="app.diagrams.net" modified="2023-10-19T06:43:22.586Z" agent="Mozilla/5.0 (Windows NT 10.0; Win64; x64) AppleWebKit/537.36 (KHTML, like Gecko) Chrome/118.0.0.0 Safari/537.36" etag="BXG4Ny3GNRkyU8mQpk2d" version="22.0.5" type="device">
  <diagram name="Strona-1" id="Pop3OaEAfj2_aY_t8iB7">
    <mxGraphModel dx="1434" dy="758" grid="1" gridSize="10" guides="1" tooltips="1" connect="1" arrows="1" fold="1" page="1" pageScale="1" pageWidth="827" pageHeight="1169" math="0" shadow="0">
      <root>
        <mxCell id="0" />
        <mxCell id="1" parent="0" />
        <mxCell id="qbIw9OofyXA3gDuwKbVz-1" value="Klient" style="rounded=0;whiteSpace=wrap;html=1;" vertex="1" parent="1">
          <mxGeometry x="60" y="380" width="120" height="60" as="geometry" />
        </mxCell>
        <mxCell id="qbIw9OofyXA3gDuwKbVz-2" value="Pracownik" style="rounded=0;whiteSpace=wrap;html=1;" vertex="1" parent="1">
          <mxGeometry x="250" y="380" width="120" height="60" as="geometry" />
        </mxCell>
        <mxCell id="qbIw9OofyXA3gDuwKbVz-3" value="nrTelefonu" style="ellipse;whiteSpace=wrap;html=1;" vertex="1" parent="1">
          <mxGeometry x="390" y="70" width="120" height="80" as="geometry" />
        </mxCell>
        <mxCell id="qbIw9OofyXA3gDuwKbVz-4" value="Pensja" style="ellipse;whiteSpace=wrap;html=1;" vertex="1" parent="1">
          <mxGeometry x="520" y="40" width="120" height="80" as="geometry" />
        </mxCell>
        <mxCell id="qbIw9OofyXA3gDuwKbVz-5" value="imie" style="ellipse;whiteSpace=wrap;html=1;" vertex="1" parent="1">
          <mxGeometry x="630" y="110" width="120" height="80" as="geometry" />
        </mxCell>
        <mxCell id="qbIw9OofyXA3gDuwKbVz-6" value="nazwisko" style="ellipse;whiteSpace=wrap;html=1;" vertex="1" parent="1">
          <mxGeometry x="670" y="200" width="120" height="80" as="geometry" />
        </mxCell>
        <mxCell id="qbIw9OofyXA3gDuwKbVz-7" value="nrPracownika" style="ellipse;whiteSpace=wrap;html=1;" vertex="1" parent="1">
          <mxGeometry x="540" y="370" width="120" height="80" as="geometry" />
        </mxCell>
        <mxCell id="qbIw9OofyXA3gDuwKbVz-8" value="stanowisko" style="ellipse;whiteSpace=wrap;html=1;" vertex="1" parent="1">
          <mxGeometry x="610" y="290" width="120" height="80" as="geometry" />
        </mxCell>
        <mxCell id="qbIw9OofyXA3gDuwKbVz-10" value="" style="endArrow=none;html=1;rounded=0;exitX=0.75;exitY=0;exitDx=0;exitDy=0;entryX=0.5;entryY=1;entryDx=0;entryDy=0;" edge="1" parent="1" source="qbIw9OofyXA3gDuwKbVz-2" target="qbIw9OofyXA3gDuwKbVz-3">
          <mxGeometry width="50" height="50" relative="1" as="geometry">
            <mxPoint x="390" y="420" as="sourcePoint" />
            <mxPoint x="440" y="370" as="targetPoint" />
            <Array as="points" />
          </mxGeometry>
        </mxCell>
        <mxCell id="qbIw9OofyXA3gDuwKbVz-11" value="" style="endArrow=none;html=1;rounded=0;entryX=0.5;entryY=1;entryDx=0;entryDy=0;exitX=1;exitY=0;exitDx=0;exitDy=0;" edge="1" parent="1" source="qbIw9OofyXA3gDuwKbVz-2" target="qbIw9OofyXA3gDuwKbVz-4">
          <mxGeometry width="50" height="50" relative="1" as="geometry">
            <mxPoint x="370" y="410" as="sourcePoint" />
            <mxPoint x="440" y="370" as="targetPoint" />
          </mxGeometry>
        </mxCell>
        <mxCell id="qbIw9OofyXA3gDuwKbVz-12" value="" style="endArrow=none;html=1;rounded=0;entryX=0;entryY=0.5;entryDx=0;entryDy=0;exitX=1;exitY=1;exitDx=0;exitDy=0;" edge="1" parent="1" source="qbIw9OofyXA3gDuwKbVz-2" target="qbIw9OofyXA3gDuwKbVz-7">
          <mxGeometry width="50" height="50" relative="1" as="geometry">
            <mxPoint x="420" y="410" as="sourcePoint" />
            <mxPoint x="420" y="410" as="targetPoint" />
            <Array as="points">
              <mxPoint x="370" y="440" />
            </Array>
          </mxGeometry>
        </mxCell>
        <mxCell id="qbIw9OofyXA3gDuwKbVz-13" value="" style="endArrow=none;html=1;rounded=0;exitX=1;exitY=0.75;exitDx=0;exitDy=0;entryX=0.033;entryY=0.638;entryDx=0;entryDy=0;entryPerimeter=0;" edge="1" parent="1" source="qbIw9OofyXA3gDuwKbVz-2" target="qbIw9OofyXA3gDuwKbVz-8">
          <mxGeometry width="50" height="50" relative="1" as="geometry">
            <mxPoint x="390" y="420" as="sourcePoint" />
            <mxPoint x="600" y="350" as="targetPoint" />
          </mxGeometry>
        </mxCell>
        <mxCell id="qbIw9OofyXA3gDuwKbVz-14" value="" style="endArrow=none;html=1;rounded=0;exitX=1;exitY=0.5;exitDx=0;exitDy=0;entryX=0;entryY=0.5;entryDx=0;entryDy=0;" edge="1" parent="1" source="qbIw9OofyXA3gDuwKbVz-2" target="qbIw9OofyXA3gDuwKbVz-6">
          <mxGeometry width="50" height="50" relative="1" as="geometry">
            <mxPoint x="390" y="420" as="sourcePoint" />
            <mxPoint x="440" y="370" as="targetPoint" />
          </mxGeometry>
        </mxCell>
        <mxCell id="qbIw9OofyXA3gDuwKbVz-15" value="" style="endArrow=none;html=1;rounded=0;exitX=1;exitY=0.25;exitDx=0;exitDy=0;entryX=0;entryY=1;entryDx=0;entryDy=0;" edge="1" parent="1" source="qbIw9OofyXA3gDuwKbVz-2" target="qbIw9OofyXA3gDuwKbVz-5">
          <mxGeometry width="50" height="50" relative="1" as="geometry">
            <mxPoint x="390" y="420" as="sourcePoint" />
            <mxPoint x="440" y="370" as="targetPoint" />
          </mxGeometry>
        </mxCell>
        <mxCell id="qbIw9OofyXA3gDuwKbVz-17" value="Nazwisko" style="ellipse;whiteSpace=wrap;html=1;" vertex="1" parent="1">
          <mxGeometry y="120" width="120" height="80" as="geometry" />
        </mxCell>
        <mxCell id="qbIw9OofyXA3gDuwKbVz-18" value="nrKlienta" style="ellipse;whiteSpace=wrap;html=1;" vertex="1" parent="1">
          <mxGeometry x="180" y="120" width="120" height="80" as="geometry" />
        </mxCell>
        <mxCell id="qbIw9OofyXA3gDuwKbVz-19" value="" style="ellipse;whiteSpace=wrap;html=1;" vertex="1" parent="1">
          <mxGeometry y="560" width="120" height="80" as="geometry" />
        </mxCell>
        <mxCell id="qbIw9OofyXA3gDuwKbVz-20" value="" style="ellipse;whiteSpace=wrap;html=1;" vertex="1" parent="1">
          <mxGeometry x="220" y="545" width="120" height="80" as="geometry" />
        </mxCell>
        <mxCell id="qbIw9OofyXA3gDuwKbVz-21" value="Imie" style="ellipse;whiteSpace=wrap;html=1;" vertex="1" parent="1">
          <mxGeometry x="80" y="20" width="120" height="80" as="geometry" />
        </mxCell>
        <mxCell id="qbIw9OofyXA3gDuwKbVz-22" value="" style="ellipse;whiteSpace=wrap;html=1;" vertex="1" parent="1">
          <mxGeometry x="100" y="640" width="120" height="80" as="geometry" />
        </mxCell>
        <mxCell id="qbIw9OofyXA3gDuwKbVz-23" value="" style="edgeStyle=entityRelationEdgeStyle;fontSize=12;html=1;endArrow=ERmandOne;rounded=0;exitX=1;exitY=0.5;exitDx=0;exitDy=0;" edge="1" parent="1" source="qbIw9OofyXA3gDuwKbVz-1">
          <mxGeometry width="100" height="100" relative="1" as="geometry">
            <mxPoint x="150" y="510" as="sourcePoint" />
            <mxPoint x="250" y="410" as="targetPoint" />
          </mxGeometry>
        </mxCell>
        <mxCell id="qbIw9OofyXA3gDuwKbVz-25" value="" style="endArrow=none;html=1;rounded=0;entryX=0.617;entryY=1.05;entryDx=0;entryDy=0;exitX=0.375;exitY=-0.05;exitDx=0;exitDy=0;exitPerimeter=0;entryPerimeter=0;" edge="1" parent="1" source="qbIw9OofyXA3gDuwKbVz-1" target="qbIw9OofyXA3gDuwKbVz-17">
          <mxGeometry width="50" height="50" relative="1" as="geometry">
            <mxPoint x="99.99857142857132" y="380" as="sourcePoint" />
            <mxPoint x="48.57" y="200" as="targetPoint" />
          </mxGeometry>
        </mxCell>
        <mxCell id="qbIw9OofyXA3gDuwKbVz-26" value="" style="endArrow=none;html=1;rounded=0;entryX=0.5;entryY=1;entryDx=0;entryDy=0;" edge="1" parent="1" target="qbIw9OofyXA3gDuwKbVz-21">
          <mxGeometry width="50" height="50" relative="1" as="geometry">
            <mxPoint x="122" y="380" as="sourcePoint" />
            <mxPoint x="180" y="150" as="targetPoint" />
          </mxGeometry>
        </mxCell>
        <mxCell id="qbIw9OofyXA3gDuwKbVz-27" value="" style="endArrow=none;html=1;rounded=0;entryX=0.342;entryY=1.025;entryDx=0;entryDy=0;entryPerimeter=0;" edge="1" parent="1" source="qbIw9OofyXA3gDuwKbVz-1" target="qbIw9OofyXA3gDuwKbVz-18">
          <mxGeometry width="50" height="50" relative="1" as="geometry">
            <mxPoint x="180" y="300" as="sourcePoint" />
            <mxPoint x="230" y="250" as="targetPoint" />
          </mxGeometry>
        </mxCell>
        <mxCell id="qbIw9OofyXA3gDuwKbVz-31" value="" style="endArrow=none;html=1;rounded=0;entryX=0.4;entryY=1.033;entryDx=0;entryDy=0;entryPerimeter=0;exitX=0.5;exitY=0;exitDx=0;exitDy=0;" edge="1" parent="1" source="qbIw9OofyXA3gDuwKbVz-19" target="qbIw9OofyXA3gDuwKbVz-1">
          <mxGeometry width="50" height="50" relative="1" as="geometry">
            <mxPoint x="80" y="520" as="sourcePoint" />
            <mxPoint x="130" y="470" as="targetPoint" />
          </mxGeometry>
        </mxCell>
        <mxCell id="qbIw9OofyXA3gDuwKbVz-32" value="" style="endArrow=none;html=1;rounded=0;entryX=0.75;entryY=1;entryDx=0;entryDy=0;exitX=0.2;exitY=0.075;exitDx=0;exitDy=0;exitPerimeter=0;" edge="1" parent="1" source="qbIw9OofyXA3gDuwKbVz-20" target="qbIw9OofyXA3gDuwKbVz-1">
          <mxGeometry width="50" height="50" relative="1" as="geometry">
            <mxPoint x="220" y="530" as="sourcePoint" />
            <mxPoint x="270" y="480" as="targetPoint" />
          </mxGeometry>
        </mxCell>
        <mxCell id="qbIw9OofyXA3gDuwKbVz-33" value="" style="endArrow=none;html=1;rounded=0;entryX=0.583;entryY=0.983;entryDx=0;entryDy=0;entryPerimeter=0;exitX=0.5;exitY=0;exitDx=0;exitDy=0;" edge="1" parent="1" source="qbIw9OofyXA3gDuwKbVz-22" target="qbIw9OofyXA3gDuwKbVz-1">
          <mxGeometry width="50" height="50" relative="1" as="geometry">
            <mxPoint x="100" y="570" as="sourcePoint" />
            <mxPoint x="150" y="520" as="targetPoint" />
          </mxGeometry>
        </mxCell>
      </root>
    </mxGraphModel>
  </diagram>
</mxfile>
